<?xml version="1.0" standalone="no"?>
<!DOCTYPE svg PUBLIC "-//W3C//DTD SVG 20010904//EN"
 "http://www.w3.org/TR/2001/REC-SVG-20010904/DTD/svg10.dtd">
<svg version="1.0" xmlns="http://www.w3.org/2000/svg"
 width="500.000000pt" height="500.000000pt" viewBox="0 0 500.000000 500.000000"
 preserveAspectRatio="xMidYMid meet">

<g transform="translate(0.000000,500.000000) scale(0.100000,-0.100000)"
fill="#000000" stroke="none">
<path d="M2374 3350 c-186 -26 -370 -124 -502 -265 -287 -307 -307 -778 -47
-1114 111 -145 251 -237 450 -297 79 -24 107 -27 225 -27 117 0 147 4 225 27
316 94 526 312 611 636 26 99 24 291 -4 400 -80 304 -315 542 -615 621 -83 22
-254 32 -343 19z m-562 -707 l3 -158 48 -3 c42 -3 47 -5 47 -28 0 -23 -2 -24
-75 -24 l-75 0 0 185 0 185 25 0 24 0 3 -157z m278 127 c0 -29 -1 -30 -50 -30
l-50 0 0 -50 0 -50 40 0 c36 0 40 -2 40 -25 0 -22 -4 -25 -40 -25 l-40 0 0
-55 0 -55 50 0 c47 0 50 -2 50 -25 0 -25 -1 -25 -80 -25 l-80 0 0 185 0 185
80 0 80 0 0 -30z m129 -32 c6 -35 14 -84 17 -111 4 -26 10 -49 14 -52 3 -2 12
37 19 88 19 142 17 137 62 137 l39 0 0 -185 0 -185 -25 0 -25 0 -1 113 c-1
125 -10 117 -29 -25 -12 -87 -12 -88 -41 -88 -31 0 -28 -9 -53 145 l-14 80 -1
-112 -1 -113 -25 0 -25 0 0 185 0 185 39 0 39 0 11 -62z m349 35 c-3 -26 -7
-28 -50 -31 l-48 -3 0 -50 0 -49 40 0 c36 0 40 -2 40 -25 0 -22 -4 -25 -40
-25 l-40 0 0 -55 0 -55 50 0 c47 0 50 -2 50 -25 0 -25 -1 -25 -80 -25 l-80 0
0 185 0 185 81 0 80 0 -3 -27z m137 -103 l21 -125 19 125 20 125 43 3 42 3 0
-185 0 -186 -30 0 -30 0 -1 113 -1 112 -18 -110 c-10 -60 -19 -111 -19 -112
-1 -2 -14 -3 -30 -3 -28 0 -28 0 -41 93 -20 139 -29 146 -29 20 l-1 -113 -25
0 -25 0 0 186 0 185 42 -3 43 -3 20 -125z m343 103 c-3 -26 -7 -28 -50 -31
l-48 -3 0 -50 0 -49 40 0 c36 0 40 -2 40 -25 0 -22 -4 -25 -40 -25 l-40 0 0
-55 0 -55 50 0 c47 0 50 -2 50 -25 0 -25 -1 -25 -80 -25 l-80 0 0 185 0 185
81 0 80 0 -3 -27z m165 16 c12 -7 25 -17 29 -23 14 -20 9 -121 -7 -143 -9 -13
-11 -23 -4 -25 13 -4 28 -71 29 -125 0 -41 -1 -43 -30 -43 -29 0 -30 1 -30 49
0 65 -14 101 -40 101 -18 0 -20 -6 -20 -75 l0 -75 -30 0 -30 0 0 185 0 185 56
0 c30 0 65 -5 77 -11z m-1127 -571 l8 -53 9 53 c8 41 14 52 28 52 17 0 19 -9
19 -85 0 -69 -3 -85 -15 -85 -9 0 -16 10 -16 28 l-2 27 -4 -27 c-6 -42 -29
-34 -40 15 l-11 42 -1 -42 c0 -24 -5 -43 -11 -43 -6 0 -10 35 -10 85 0 77 2
85 19 85 15 0 21 -10 27 -52z m154 37 c0 -8 -9 -15 -20 -15 -13 0 -20 -7 -20
-20 0 -11 7 -20 15 -20 8 0 15 -7 15 -15 0 -8 -7 -15 -15 -15 -9 0 -15 -9 -15
-25 0 -18 5 -25 20 -25 11 0 20 -4 20 -10 0 -5 -16 -10 -35 -10 l-35 0 0 85 0
85 35 0 c24 0 35 -5 35 -15z m66 -37 l8 -53 9 53 c8 41 14 52 28 52 17 0 19
-9 19 -85 0 -69 -3 -85 -15 -85 -9 0 -16 10 -16 28 l-2 27 -4 -27 c-6 -42 -29
-34 -40 15 l-11 42 -1 -42 c0 -24 -5 -43 -11 -43 -6 0 -10 35 -10 85 0 77 2
85 19 85 15 0 21 -10 27 -52z m154 37 c0 -8 -9 -15 -20 -15 -13 0 -20 -7 -20
-20 0 -11 7 -20 15 -20 8 0 15 -7 15 -15 0 -8 -7 -15 -15 -15 -9 0 -15 -9 -15
-25 0 -18 5 -25 20 -25 11 0 20 -4 20 -10 0 -5 -16 -10 -35 -10 l-35 0 0 85 0
85 35 0 c24 0 35 -5 35 -15z m80 -20 c0 -24 5 -35 15 -35 10 0 15 11 15 35 0
24 5 35 15 35 12 0 15 -16 15 -85 0 -69 -3 -85 -15 -85 -10 0 -15 11 -15 35 0
24 -5 35 -15 35 -10 0 -15 -11 -15 -35 0 -24 -5 -35 -15 -35 -12 0 -15 16 -15
85 0 69 3 85 15 85 10 0 15 -11 15 -35z m150 9 c13 -33 13 -100 0 -125 -6 -11
-21 -19 -35 -19 -30 0 -45 26 -45 79 0 61 15 91 45 91 18 0 28 -7 35 -26z m50
-43 c0 -39 5 -73 10 -76 6 -4 10 22 10 69 0 61 3 76 15 76 12 0 15 -14 15 -69
0 -84 -6 -101 -34 -101 -37 0 -46 19 -46 97 0 58 3 73 15 73 12 0 15 -14 15
-69z m134 47 c13 -21 0 -36 -16 -20 -7 7 -16 12 -20 12 -17 0 -7 -27 17 -50
34 -32 32 -83 -3 -88 -26 -4 -52 13 -52 34 0 19 20 17 36 -3 12 -17 13 -17 14
3 0 11 -9 29 -20 39 -26 24 -33 50 -20 75 13 25 48 24 64 -2z m96 7 c0 -9 -9
-15 -25 -15 -18 0 -25 -5 -25 -20 0 -13 7 -20 20 -20 11 0 20 -7 20 -15 0 -9
-9 -15 -21 -15 -30 0 -22 -44 9 -48 35 -5 26 -22 -13 -22 l-35 0 0 85 0 85 35
0 c24 0 35 -5 35 -15z"/>
<path d="M3140 2685 c0 -37 4 -55 13 -55 32 1 52 41 41 84 -4 19 -13 26 -30
26 -22 0 -24 -4 -24 -55z"/>
<path d="M2642 2185 c2 -30 8 -55 13 -55 6 0 11 25 13 55 2 45 0 55 -13 55
-13 0 -15 -10 -13 -55z"/>
</g>
</svg>
